<?xml version="1.0" standalone="no"?>
<svg version="1.0" xmlns="http://www.w3.org/2000/svg"
 width="217pt" height="237pt" viewBox="0 0 217 237"
 preserveAspectRatio="xMidYMid meet">
<metadata>
</metadata>
<g transform="translate(0.000000,197.000000) scale(0.100000,-0.100000)"
fill="#000000" stroke="none">
<path d="M1008 1860 c-18 -8 -34 -18 -36 -22 -2 -4 -11 -4 -20 -1 -12 4 -14 3
-7 -5 8 -8 22 -7 55 5 65 24 203 21 262 -5 92 -40 158 -121 173 -209 5 -31 11
-43 23 -42 11 0 12 2 4 6 -6 2 -10 8 -7 13 15 24 -75 208 -95 195 -6 -3 -10
-1 -10 4 0 6 -22 22 -50 36 -27 14 -50 22 -50 19 0 -4 -7 -1 -15 6 -23 19
-186 19 -227 0z"/>
<path d="M1182 1818 c3 -7 16 -14 31 -16 14 -2 31 -10 37 -18 7 -8 21 -14 32
-14 10 0 17 -4 13 -9 -3 -6 1 -13 9 -18 14 -8 109 -144 103 -149 -8 -7 -349
-12 -341 -4 5 5 32 11 59 13 41 3 46 5 27 12 -16 5 -20 10 -12 15 15 9 6 75
-11 86 -7 4 -8 -6 -4 -29 11 -57 0 -74 -50 -82 -25 -3 -45 -10 -45 -14 0 -4
-27 -12 -59 -19 -32 -7 -64 -19 -71 -27 -16 -19 -8 -19 38 1 59 24 279 38 299
18 7 -7 9 -15 4 -18 -5 -4 -11 0 -14 6 -3 9 -19 -1 -44 -25 -55 -53 -105 -65
-234 -59 -119 5 -210 -15 -241 -53 -19 -23 -42 -94 -34 -103 3 -3 6 1 6 10 0
15 39 38 65 38 24 0 17 -19 -17 -51 -28 -25 -30 -29 -13 -30 32 -2 48 1 73 13
19 10 25 9 32 -2 8 -12 10 -13 10 -1 0 9 9 4 25 -13 13 -14 34 -26 47 -26 23
0 23 0 -4 25 -26 24 -110 49 -123 37 -3 -3 -5 6 -5 21 0 15 -9 32 -20 40 -22
16 -18 47 6 47 8 0 25 6 37 14 25 16 137 29 137 16 0 -4 9 -6 20 -3 23 6 40
-25 20 -37 -8 -5 -9 -9 -1 -14 6 -4 11 -5 11 -2 0 2 13 1 29 -4 24 -7 29 -5
24 6 -3 8 1 14 11 14 9 0 15 5 14 12 -2 6 6 14 17 16 11 2 25 9 30 15 21 25
71 51 97 52 14 0 24 -3 22 -7 -3 -4 8 -5 23 -2 17 3 36 -1 48 -9 17 -13 18
-18 7 -41 -6 -14 -18 -26 -26 -26 -36 0 -171 -73 -278 -150 -45 -32 -47 -35
-33 -54 9 -12 24 -34 34 -49 20 -30 103 -87 127 -87 11 0 8 7 -10 25 -14 14
-31 22 -38 20 -14 -6 -26 4 -78 67 -29 35 -30 37 -10 43 11 3 20 11 20 16 0 5
7 9 15 9 8 0 15 6 15 14 0 8 10 18 23 22 12 4 24 10 27 13 7 10 76 41 89 41 6
0 11 5 11 12 0 6 3 9 6 5 3 -3 17 -2 31 4 15 5 22 5 18 0 -3 -5 -1 -12 5 -16
5 -3 10 -1 10 6 0 7 3 10 6 6 4 -3 2 -20 -4 -36 -10 -28 -9 -31 9 -31 10 0 19
6 19 14 0 8 5 16 12 18 8 3 7 14 -5 38 -21 40 -21 41 -3 34 9 -4 18 6 27 30 7
20 17 36 22 36 5 0 7 7 3 15 -8 23 17 18 33 -6 9 -16 10 -24 2 -29 -16 -9 -3
-40 17 -40 12 0 13 3 5 11 -9 9 -8 18 5 37 15 23 15 25 -3 38 -10 8 -25 14
-32 14 -23 0 -83 34 -83 46 0 20 127 17 134 -2 3 -9 11 -12 17 -9 7 5 5 11 -4
18 -9 7 -20 36 -26 65 -15 73 -65 133 -144 172 -64 32 -91 38 -85 18z m-143
-377 c6 -1 -32 -30 -40 -31 -4 0 -9 9 -12 20 -5 20 -2 21 52 11z"/>
<path d="M989 1808 c-21 -5 -66 -34 -102 -63 -62 -51 -82 -84 -80 -130 1 -11
3 -42 4 -68 2 -33 -2 -52 -12 -59 -10 -7 -2 -8 26 -4 22 3 63 6 90 7 l50 1
-52 8 c-88 13 -86 11 -81 93 5 76 21 113 52 123 11 4 28 15 39 25 11 10 36 22
54 25 44 8 114 -1 123 -16 5 -8 9 -5 13 9 3 11 2 19 -2 18 -3 -1 -7 3 -8 8 -1
6 14 9 33 8 24 -2 34 1 31 10 -5 15 -126 18 -178 5z"/>
<path d="M1375 1541 c-3 -5 -1 -12 5 -16 5 -3 10 -1 10 6 0 7 8 5 20 -6 21
-19 28 -7 8 13 -14 14 -35 16 -43 3z"/>
<path d="M1120 1513 c-29 -21 -31 -24 -10 -18 25 7 73 46 55 44 -6 0 -26 -12
-45 -26z"/>
<path d="M1444 1506 c8 -43 -18 -113 -45 -121 -13 -5 -18 -12 -14 -24 3 -10
-6 -39 -20 -65 -15 -28 -23 -57 -21 -72 3 -13 2 -24 -2 -24 -4 0 -15 -20 -25
-44 -10 -24 -27 -52 -38 -62 -10 -9 -19 -22 -19 -27 0 -6 12 0 26 14 35 32 77
118 103 208 22 81 51 126 51 81 0 -30 41 -101 47 -82 3 7 -1 20 -8 28 -8 10
-13 50 -12 120 0 84 -3 104 -15 104 -11 0 -13 -8 -8 -34z"/>
<path d="M609 1505 c-8 -8 -39 -17 -69 -20 -31 -2 -65 -12 -79 -23 -32 -24
-38 -42 -12 -35 12 3 21 11 21 18 0 19 24 25 92 25 48 0 59 3 55 14 -13 33 78
29 122 -5 13 -10 28 -16 33 -13 5 3 -5 17 -23 30 -39 28 -115 33 -140 9z"/>
<path d="M644 1479 c-3 -5 -1 -9 4 -9 4 0 16 -15 25 -32 10 -21 16 -27 16 -15
1 9 6 17 11 17 7 0 7 6 1 19 -12 21 -48 34 -57 20z"/>
<path d="M1180 1467 c-48 -16 -80 -39 -80 -57 1 -12 3 -11 11 3 8 13 14 15 29
7 16 -8 22 -6 32 9 6 10 17 17 24 14 7 -2 17 5 24 16 12 24 9 24 -40 8z"/>
<path d="M616 1424 c5 -16 8 -50 8 -76 -1 -53 11 -56 18 -6 6 37 -7 94 -24
104 -8 5 -8 -1 -2 -22z"/>
<path d="M507 1433 c26 -5 53 -40 77 -97 22 -52 29 -42 11 16 -23 79 -31 88
-73 87 -23 -1 -28 -3 -15 -6z"/>
<path d="M478 1393 c17 -9 32 -23 32 -31 0 -9 3 -12 7 -9 3 4 12 -1 19 -11 7
-9 14 -12 14 -6 0 22 -58 74 -82 73 -21 0 -20 -2 10 -16z"/>
<path d="M901 1346 c-22 -23 -20 -29 23 -66 l29 -25 -13 25 c-12 22 -12 24 2
12 14 -11 16 -9 14 13 -1 28 -6 31 -23 14 -6 -6 -16 -8 -23 -4 -20 12 10 35
47 35 30 0 34 -2 23 -15 -10 -12 -9 -16 5 -21 10 -4 21 -1 26 7 14 22 11 26
-18 34 -54 15 -71 13 -92 -9z"/>
<path d="M1490 1359 c0 -8 6 -22 13 -31 10 -13 26 -14 112 -6 122 11 250 4
300 -16 43 -18 45 -19 45 -8 0 5 -27 16 -60 25 -45 13 -101 17 -224 17 -147 0
-166 2 -175 18 -9 14 -10 14 -11 1z"/>
<path d="M404 1341 c5 -7 -1 -11 -13 -11 -12 0 -21 -6 -21 -13 0 -24 13 -27
27 -7 8 11 19 17 25 14 6 -4 9 -1 6 6 -2 8 -10 16 -18 18 -7 3 -10 0 -6 -7z"/>
<path d="M341 1325 c-1 -10 -35 -52 -77 -92 -70 -68 -94 -87 -79 -63 12 19
-10 9 -45 -20 -36 -32 -32 -39 10 -15 34 20 47 18 53 -5 5 -20 37 -29 37 -10
0 6 -4 10 -10 10 -5 0 -10 4 -10 8 0 10 67 82 76 82 4 0 12 8 19 17 13 17 55
26 55 11 0 -4 20 -28 46 -52 42 -42 44 -45 26 -58 -10 -7 -22 -25 -26 -40 -3
-16 -11 -28 -16 -28 -6 0 -5 -9 2 -20 11 -17 10 -22 -2 -30 -8 -5 -18 -6 -24
-3 -5 3 -6 1 -2 -5 3 -5 0 -12 -6 -15 -19 -7 8 -32 62 -59 49 -25 47 -19 51
-143 1 -38 2 -37 14 20 7 33 15 79 19 102 l6 42 -34 -6 c-19 -3 -36 -1 -40 6
-4 6 -15 11 -25 11 -21 0 -46 26 -33 34 4 2 27 0 50 -6 24 -6 46 -8 49 -4 12
11 -48 65 -66 58 -14 -5 -14 -4 -2 14 8 10 33 38 54 61 22 22 37 46 33 51 -3
5 -21 13 -39 16 -40 7 -102 71 -116 119 -6 20 -10 25 -10 12z"/>
<path d="M1308 1285 c-6 -29 12 -34 33 -9 10 13 10 17 -2 25 -22 13 -26 11
-31 -16z"/>
<path d="M1653 1304 c8 -8 34 -14 164 -40 18 -4 54 -3 80 1 l48 8 -50 13 c-61
16 -253 30 -242 18z"/>
<path d="M1518 1273 c-34 -5 -34 -10 -5 -47 20 -24 27 -27 43 -18 12 7 14 12
5 12 -24 0 7 28 40 35 74 16 4 31 -83 18z"/>
<path d="M1605 1235 c-33 -15 -17 -19 35 -9 22 5 28 9 18 15 -16 11 -17 11
-53 -6z"/>
<path d="M1929 1246 c-2 -3 -54 -9 -114 -15 -139 -13 -287 -46 -346 -78 -40
-21 -191 -163 -174 -163 9 0 57 33 76 51 17 17 114 50 203 69 51 11 147 5 179
-12 13 -6 23 -5 35 4 11 9 14 9 8 1 -5 -9 -2 -11 9 -7 15 6 15 8 0 23 -12 13
-36 16 -108 15 -130 -1 -227 -11 -243 -25 -8 -7 -17 -9 -20 -7 -8 9 50 47 93
62 23 8 78 13 140 12 89 -1 105 -4 132 -24 35 -25 38 -22 15 13 -19 29 -16 31
61 39 28 3 58 7 68 8 20 3 24 38 4 38 -8 0 -16 -2 -18 -4z"/>
<path d="M89 1088 c-48 -25 -65 -39 -67 -57 l-4 -24 32 26 c17 15 38 27 46 27
9 0 12 5 8 13 -5 9 -4 9 6 0 10 -10 19 -8 40 7 24 17 29 18 46 5 31 -23 39
-17 14 10 -30 32 -44 32 -121 -7z"/>
<path d="M1595 1075 c-22 -7 -62 -14 -90 -15 -27 -1 -61 -5 -75 -9 -25 -7 -25
-7 -4 -19 12 -6 24 -9 28 -5 6 7 20 8 181 18 128 8 148 12 124 25 -29 17 -122
20 -164 5z"/>
<path d="M1128 1054 c-33 -17 -44 -45 -24 -60 9 -6 16 -16 16 -23 0 -6 9 -11
20 -11 11 0 20 4 20 9 0 5 -9 11 -20 14 -23 6 -25 15 -7 39 11 14 20 15 52 8
22 -5 41 -7 43 -5 2 2 15 -8 28 -23 15 -17 22 -20 18 -9 -3 9 -10 17 -14 17
-4 0 -10 9 -13 19 -3 14 -11 18 -26 14 -11 -3 -31 1 -44 10 -20 13 -27 13 -49
1z"/>
<path d="M1656 1019 c-49 -4 -99 -12 -110 -18 -12 -5 -30 -12 -41 -14 -13 -3
-9 -5 11 -6 17 0 51 6 77 15 33 11 51 13 64 5 16 -10 16 -10 -4 -11 -12 0 -24
-4 -28 -9 -3 -6 -13 -10 -23 -10 -39 -1 -114 -19 -125 -31 -10 -10 -7 -11 13
-7 14 3 56 9 94 13 41 4 90 17 117 30 26 13 56 24 67 24 27 0 136 -39 185 -67
4 -2 7 2 7 10 0 8 -9 17 -20 20 -13 3 -20 14 -20 29 0 18 -2 20 -10 8 -8 -13
-10 -13 -15 1 -4 10 -16 14 -39 11 -19 -2 -37 1 -40 7 -8 12 -27 12 -160 0z"/>
<path d="M910 980 c-84 -20 -117 -30 -155 -49 -54 -27 -40 -26 51 5 42 14 109
28 148 31 89 7 123 23 46 22 -30 -1 -71 -5 -90 -9z"/>
<path d="M1027 924 c-31 -24 -60 -44 -63 -44 -3 0 -3 11 0 25 4 14 3 25 -2 25
-17 0 -84 -78 -77 -90 5 -8 11 -5 21 8 10 15 23 19 56 17 34 -2 47 2 65 21 12
13 28 24 36 24 13 0 47 30 47 42 0 21 -34 9 -83 -28z"/>
<path d="M1718 953 c-21 -8 -38 -19 -38 -24 0 -13 10 -11 60 16 50 27 35 32
-22 8z"/>
<path d="M857 905 c-40 -15 -93 -54 -116 -87 -21 -31 -4 -33 23 -3 15 16 26
24 26 20 0 -5 12 2 26 16 20 17 28 20 31 11 4 -10 14 -6 34 14 47 45 40 52
-24 29z"/>
<path d="M1418 887 c-52 -35 -80 -73 -31 -42 16 10 37 26 49 36 11 11 26 19
32 19 7 0 12 5 12 10 0 16 -11 11 -62 -23z"/>
<path d="M1560 909 c-25 -3 -34 -7 -21 -7 25 -2 25 -2 -10 -39 l-34 -36 38 21
c21 12 44 22 51 22 8 0 24 8 37 18 21 18 21 19 3 23 -10 2 -39 2 -64 -2z"/>
<path d="M770 895 c-14 -7 -37 -16 -52 -20 -18 -3 -28 -12 -28 -23 0 -14 -4
-12 -20 8 l-21 25 7 -29 c5 -21 4 -27 -5 -22 -6 4 -11 21 -11 38 0 17 -3 28
-7 24 -5 -4 -8 -11 -8 -14 0 -4 -3 -12 -7 -18 -4 -6 -1 -30 7 -55 12 -38 15
-41 21 -22 5 19 9 21 26 12 11 -6 21 -9 22 -7 1 2 9 20 19 41 9 20 23 37 31
37 7 0 24 9 37 20 28 23 24 25 -11 5z"/>
<path d="M1660 879 c-36 -17 -80 -37 -98 -46 -49 -23 -34 -25 37 -3 35 11 67
17 73 14 10 -6 68 43 68 58 0 13 -11 10 -80 -23z"/>
<path d="M1731 845 c-30 -19 -59 -32 -64 -28 -6 3 -7 1 -3 -5 3 -6 -2 -13 -11
-15 -10 -2 -1 -3 19 -1 l38 4 -14 -32 c-20 -47 -34 -78 -57 -122 -23 -43 -20
-53 9 -37 13 7 18 17 15 31 -3 11 2 26 11 35 9 9 16 24 16 33 0 14 2 15 10 2
7 -12 10 -11 15 5 20 59 31 84 57 123 16 23 25 42 21 42 -4 0 -32 -16 -62 -35z"/>
<path d="M520 864 c0 -3 11 -15 25 -26 14 -11 25 -25 25 -32 0 -7 10 -21 21
-32 21 -19 22 -19 16 1 -3 11 -8 37 -12 58 -5 34 -8 37 -40 37 -19 0 -35 -3
-35 -6z"/>
<path d="M1820 834 c-22 -20 -43 -47 -46 -60 -3 -13 -9 -24 -14 -24 -4 0 -6
-17 -5 -37 2 -21 -2 -49 -7 -63 -14 -35 -57 -193 -74 -270 -8 -36 -15 -107
-15 -158 1 -60 -4 -103 -13 -120 -24 -47 -36 -102 -22 -102 6 0 18 15 25 33
38 89 40 95 28 132 -8 27 -8 41 1 55 6 10 7 20 2 22 -5 2 -4 38 2 88 14 114
57 223 113 280 44 46 95 130 95 158 0 20 -12 7 -37 -38 -47 -87 -93 -147 -93
-121 0 13 51 130 83 191 18 34 31 46 52 48 17 2 25 0 21 -7 -5 -7 0 -8 13 -3
36 13 27 27 -21 30 -42 3 -51 -1 -88 -34z"/>
<path d="M512 784 c-2 -30 1 -44 8 -39 5 3 10 15 10 25 0 10 6 20 13 23 9 3 9
7 -2 20 -21 26 -26 21 -29 -29z"/>
<path d="M1931 759 c-12 -28 -20 -53 -18 -56 2 -2 10 10 17 27 7 16 15 30 19
30 4 0 8 11 9 25 1 14 0 25 -1 25 -2 0 -13 -23 -26 -51z"/>
<path d="M1880 640 c0 -5 -10 -18 -22 -30 -12 -11 -19 -22 -16 -25 3 -3 20 7
38 23 25 24 28 30 16 35 -9 4 -16 2 -16 -3z"/>
<path d="M1165 570 c-11 -16 -29 -31 -41 -34 -12 -3 -38 -26 -58 -51 -21 -25
-54 -54 -74 -65 -36 -19 -36 -20 -7 -14 43 9 72 30 90 64 8 16 35 41 59 55 24
14 46 35 50 47 8 32 3 31 -19 -2z"/>
<path d="M1901 580 c-24 -11 -42 -23 -39 -25 7 -8 98 26 98 36 0 13 -9 11 -59
-11z"/>
<path d="M35 499 c7 -23 7 -24 -9 -4 -24 31 -18 5 12 -49 23 -43 44 -60 152
-128 69 -44 159 -95 200 -115 41 -19 76 -36 78 -38 2 -2 -8 -38 -22 -81 -26
-79 -27 -90 -4 -81 14 5 48 133 48 179 0 15 5 30 10 33 12 8 13 25 1 25 -5 0
-11 -9 -14 -20 -7 -29 -25 -25 -121 25 -112 58 -126 67 -150 88 -11 9 -24 17
-30 17 -5 0 -17 6 -25 14 -9 8 -23 16 -31 18 -20 4 -67 67 -75 101 -4 15 -12
30 -17 33 -6 4 -7 -2 -3 -17z"/>
<path d="M1757 439 c-20 -28 -27 -47 -23 -63 3 -13 -1 -37 -9 -52 -19 -36 -19
-45 -1 -38 25 10 22 -29 -7 -85 -15 -29 -25 -56 -22 -59 7 -7 7 -6 37 58 34
71 47 129 26 115 -8 -6 -6 -3 4 7 22 20 22 25 3 45 -18 18 -16 44 4 51 10 3
13 -2 9 -21 -11 -56 22 -5 38 58 10 41 -27 31 -59 -16z"/>
<path d="M536 271 c5 -4 30 -27 57 -51 26 -24 50 -40 54 -36 9 8 -73 83 -99
89 -11 3 -17 2 -12 -2z"/>
<path d="M797 213 c-11 -10 -8 -43 3 -43 6 0 10 4 10 9 0 5 3 16 6 25 6 16 -7
22 -19 9z"/>
<path d="M692 169 c-5 -12 -5 -44 -1 -72 3 -29 4 -57 2 -63 -2 -7 1 -15 6 -19
8 -4 11 21 9 84 -1 50 -3 91 -5 91 -2 0 -7 -9 -11 -21z"/>
<path d="M1450 75 c0 -9 -7 -30 -16 -47 -11 -22 -12 -29 -3 -26 7 2 21 23 30
46 15 35 16 42 4 42 -8 0 -15 -7 -15 -15z"/>
</g>
</svg>
